<?xml version="1.0" encoding="UTF-8"?>
<svg width="98px" height="98px" viewBox="0 0 98 98" version="1.1" xmlns="http://www.w3.org/2000/svg" xmlns:xlink="http://www.w3.org/1999/xlink">
    <!-- Generator: Sketch 52.2 (67145) - http://www.bohemiancoding.com/sketch -->
    <title>fb-reveal</title>
    <desc>Created with Sketch.</desc>
    <g id="Page-1" stroke="none" stroke-width="1" fill="none" fill-rule="evenodd">
        <g id="Site" transform="translate(-251.000000, -89.000000)" fill="#FFFFFF">
            <g id="fb-reveal" transform="translate(251.000000, 89.145110)">
                <circle id="Oval" cx="49" cy="36.5" r="18.75"></circle>
                <path d="M4.5625,42.75 L8.6875,42.75 C10.6499732,42.6964082 12.3364533,41.3421135 12.8125,39.4375 C16.265671,26.4271463 26.4271463,16.265671 39.4375,12.8125 C41.3421135,12.3364533 42.6964082,10.6499732 42.75,8.6875 L42.75,4.5625 C42.7477211,3.24413612 42.1425238,1.99923645 41.1071378,1.18310871 C40.0717519,0.36698098 38.7199312,0.0692900082 37.4375,0.375 C19.0790496,4.74502376 4.74502376,19.0790496 0.375,37.4375 C0.0692900082,38.7199312 0.36698098,40.0717519 1.18310871,41.1071378 C1.99923645,42.1425238 3.24413612,42.7477211 4.5625,42.75 Z" id="Path"></path>
                <path d="M58.5625,12.8125 C71.5728537,16.265671 81.734329,26.4271463 85.1875,39.4375 C85.6635467,41.3421135 87.3500268,42.6964082 89.3125,42.75 L93.4375,42.75 C94.7558639,42.7477211 96.0007636,42.1425238 96.8168913,41.1071378 C97.633019,40.0717519 97.93071,38.7199312 97.625,37.4375 C93.2549762,19.0790496 78.9209504,4.74502376 60.5625,0.375 C59.2800688,0.0692900082 57.9282481,0.36698098 56.8928622,1.18310871 C55.8574762,1.99923645 55.2522789,3.24413612 55.25,4.5625 L55.25,8.6875 C55.3035918,10.6499732 56.6578865,12.3364533 58.5625,12.8125 Z" id="Path"></path>
                <path d="M39.4375,85.1875 C26.4271463,81.734329 16.265671,71.5728537 12.8125,58.5625 C12.3364533,56.6578865 10.6499732,55.3035918 8.6875,55.25 L4.5625,55.25 C3.24413612,55.2522789 1.99923645,55.8574762 1.18310871,56.8928622 C0.36698098,57.9282481 0.0692900082,59.2800688 0.375,60.5625 C4.74502376,78.9209504 19.0790496,93.2549762 37.4375,97.625 C38.7199312,97.93071 40.0717519,97.633019 41.1071378,96.8168913 C42.1425238,96.0007636 42.7477211,94.7558639 42.75,93.4375 L42.75,89.3125 C42.6964082,87.3500268 41.3421135,85.6635467 39.4375,85.1875 Z" id="Path"></path>
                <path d="M93.4375,55.25 L89.3125,55.25 C87.3500268,55.3035918 85.6635467,56.6578865 85.1875,58.5625 C81.734329,71.5728537 71.5728537,81.734329 58.5625,85.1875 C56.6578865,85.6635467 55.3035918,87.3500268 55.25,89.3125 L55.25,93.4375 C55.2522789,94.7558639 55.8574762,96.0007636 56.8928622,96.8168913 C57.9282481,97.633019 59.2800688,97.93071 60.5625,97.625 C78.9209504,93.2549762 93.2549762,78.9209504 97.625,60.5625 C97.93071,59.2800688 97.633019,57.9282481 96.8168913,56.8928622 C96.0007636,55.8574762 94.7558639,55.2522789 93.4375,55.25 Z" id="Path"></path>
                <path d="M74.6875,66.5625 C76.3422574,64.217807 76.1876085,61.0475044 74.3125,58.875 C67.75,51.25 58.5,61.5 49,61.5 C39.5,61.5 30.25,51.25 24,58.875 C22.1248915,61.0475044 21.9702426,64.217807 23.625,66.5625 C29.4627021,74.9886573 39.0617004,80.016016 49.3125,80.016016 C59.5632996,80.016016 69.1622979,74.9886573 75,66.5625 L74.6875,66.5625 Z" id="Path"></path>
            </g>
        </g>
    </g>
</svg>