<?xml version="1.0" encoding="UTF-8"?>
<svg width="15px" height="17px" viewBox="0 0 15 17" version="1.1" xmlns="http://www.w3.org/2000/svg" xmlns:xlink="http://www.w3.org/1999/xlink">
    <!-- Generator: Sketch 52.2 (67145) - http://www.bohemiancoding.com/sketch -->
    <title>Shape</title>
    <desc>Created with Sketch.</desc>
    <g id="Page-1" stroke="none" stroke-width="1" fill="none" fill-rule="evenodd">
        <g id="Site" transform="translate(-317.000000, -5013.000000)" fill="#000000" fill-rule="nonzero">
            <g id="if_sort-alpha-asc_1608407" transform="translate(317.000000, 5013.000000)">
                <path d="M10.6683017,3.7522992 L12.2961373,3.7522992 L11.6339669,1.74739424 L11.5236052,1.31514408 C11.5113427,1.21704476 11.5052115,1.15573268 11.5052115,1.13120785 L11.4684243,1.13120785 L11.4408338,1.31514408 C11.4408338,1.32127529 11.4301042,1.37645616 11.408645,1.4806867 C11.3871858,1.58491723 11.3641937,1.67381974 11.3396689,1.74739424 L10.6683017,3.7522992 Z M6.4837523,13.243409 C6.4837523,13.3169834 6.45309626,13.3905579 6.39178418,13.4641324 L3.45800123,16.3979154 C3.39668915,16.4530963 3.32618026,16.4806867 3.24647456,16.4806867 C3.17290006,16.4806867 3.10239117,16.4530963 3.03494788,16.3979154 L0.0919681177,13.4549356 C-4.33680869e-19,13.3568363 -0.0214592275,13.2495402 0.0275904353,13.1330472 C0.0766400981,13.0104231 0.168608216,12.949111 0.303494788,12.949111 L2.06928265,12.949111 L2.06928265,0.294297977 C2.06928265,0.208461067 2.09687308,0.137952177 2.15205395,0.0827713059 C2.20723483,0.0275904353 2.27774372,0 2.36358063,0 L4.12936849,0 C4.2152054,0 4.28571429,0.0275904353 4.34089516,0.0827713059 C4.39607603,0.137952177 4.42366646,0.208461067 4.42366646,0.294297977 L4.42366646,12.949111 L6.18945432,12.949111 C6.27529123,12.949111 6.34580012,12.9767014 6.40098099,13.0318823 C6.45616186,13.0870632 6.4837523,13.157572 6.4837523,13.243409 Z M14.1722869,14.3378296 L14.1722869,16.4806867 L8.80134887,16.4806867 L8.80134887,15.6529736 L12.1949724,10.7878602 C12.2685469,10.6774985 12.3329246,10.5947272 12.3881055,10.5395463 L12.4892704,10.456775 L12.4892704,10.4291845 C12.477008,10.4291845 12.4570815,10.4307174 12.4294911,10.433783 C12.4019007,10.4368486 12.3789086,10.4383814 12.360515,10.4383814 C12.2869405,10.456775 12.1949724,10.4659718 12.0846107,10.4659718 L9.95095034,10.4659718 L9.95095034,11.5236052 L8.84733292,11.5236052 L8.84733292,9.41753525 L14.0619252,9.41753525 L14.0619252,10.2360515 L10.6683017,15.1103617 C10.6315144,15.1594114 10.5671367,15.2391171 10.4751686,15.3494788 L10.3740037,15.4506438 L10.3740037,15.4690374 L10.502759,15.4506438 C10.5579399,15.4383814 10.649908,15.4322502 10.7786634,15.4322502 L13.0594727,15.4322502 L13.0594727,14.3378296 L14.1722869,14.3378296 Z M14.9908032,6.08828939 L14.9908032,7.06315144 L12.3421214,7.06315144 L12.3421214,6.08828939 L13.0318823,6.08828939 L12.5996321,4.7639485 L10.3648069,4.7639485 L9.93255671,6.08828939 L10.6223176,6.08828939 L10.6223176,7.06315144 L7.98283262,7.06315144 L7.98283262,6.08828939 L8.62660944,6.08828939 L10.7418761,0 L12.2317597,0 L14.3470264,6.08828939 L14.9908032,6.08828939 Z" id="Shape"></path>
            </g>
        </g>
    </g>
</svg>