<?xml version="1.0" encoding="UTF-8"?>
<svg width="16px" height="16px" viewBox="0 0 16 16" version="1.1" xmlns="http://www.w3.org/2000/svg" xmlns:xlink="http://www.w3.org/1999/xlink">
    <!-- Generator: Sketch 52.2 (67145) - http://www.bohemiancoding.com/sketch -->
    <title>Shape Copy 5</title>
    <desc>Created with Sketch.</desc>
    <g id="Page-1" stroke="none" stroke-width="1" fill="none" fill-rule="evenodd">
        <g id="Site" transform="translate(-983.000000, -5060.000000)" fill="#000000" fill-rule="nonzero">
            <g id="if_sort-amount-asc_1608405" transform="translate(599.000000, 5060.000000)">
                <g id="if_sort-amount-desc_1608404">
                    <path d="M394.191793,13.3576967 L394.191793,14.993333 C394.191793,15.0728431 394.166236,15.138155 394.115123,15.1892686 C394.064009,15.2403822 393.998697,15.2659391 393.919187,15.2659391 L391.738339,15.2659391 C391.658828,15.2659391 391.593517,15.2403822 391.542403,15.1892686 C391.491289,15.138155 391.465733,15.0728431 391.465733,14.993333 L391.465733,13.3576967 C391.465733,13.2781866 391.491289,13.2128747 391.542403,13.1617611 C391.593517,13.1106474 391.658828,13.0850906 391.738339,13.0850906 L393.919187,13.0850906 C393.998697,13.0850906 394.064009,13.1106474 394.115123,13.1617611 C394.166236,13.2128747 394.191793,13.2781866 394.191793,13.3576967 Z M390.102702,12.2672725 C390.102702,12.335424 390.074306,12.4035755 390.017513,12.471727 L387.299971,15.1892686 C387.243178,15.2403822 387.177866,15.2659391 387.104036,15.2659391 C387.035884,15.2659391 386.970572,15.2403822 386.9081,15.1892686 L384.18204,12.4632081 C384.09685,12.3723394 384.076973,12.2729518 384.122407,12.1650452 C384.167841,12.0514593 384.253031,11.9946664 384.377975,11.9946664 L386.013611,11.9946664 L386.013611,0.272606055 C386.013611,0.193095955 386.039168,0.127784088 386.090282,0.0766704529 C386.141396,0.0255568176 386.206707,0 386.286218,0 L387.921854,0 C388.001364,0 388.066676,0.0255568176 388.117789,0.0766704529 C388.168903,0.127784088 388.19446,0.193095955 388.19446,0.272606055 L388.19446,11.9946664 L389.830096,11.9946664 C389.909606,11.9946664 389.974918,12.0202232 390.026032,12.0713369 C390.077145,12.1224505 390.102702,12.1877624 390.102702,12.2672725 Z M395.827429,8.9959998 L395.827429,10.6316361 C395.827429,10.7111462 395.801873,10.7764581 395.750759,10.8275717 C395.699645,10.8786854 395.634333,10.9042422 395.554823,10.9042422 L391.738339,10.9042422 C391.658828,10.9042422 391.593517,10.8786854 391.542403,10.8275717 C391.491289,10.7764581 391.465733,10.7111462 391.465733,10.6316361 L391.465733,8.9959998 C391.465733,8.9164897 391.491289,8.85117784 391.542403,8.8000642 C391.593517,8.74895057 391.658828,8.72339375 391.738339,8.72339375 L395.554823,8.72339375 C395.634333,8.72339375 395.699645,8.74895057 395.750759,8.8000642 C395.801873,8.85117784 395.827429,8.9164897 395.827429,8.9959998 Z M397.463066,4.63430293 L397.463066,6.26993926 C397.463066,6.34944936 397.437509,6.41476122 397.386395,6.46587486 C397.335282,6.51698849 397.26997,6.54254531 397.19046,6.54254531 L391.738339,6.54254531 C391.658828,6.54254531 391.593517,6.51698849 391.542403,6.46587486 C391.491289,6.41476122 391.465733,6.34944936 391.465733,6.26993926 L391.465733,4.63430293 C391.465733,4.55479283 391.491289,4.48948096 391.542403,4.43836733 C391.593517,4.38725369 391.658828,4.36169687 391.738339,4.36169687 L397.19046,4.36169687 C397.26997,4.36169687 397.335282,4.38725369 397.386395,4.43836733 C397.437509,4.48948096 397.463066,4.55479283 397.463066,4.63430293 Z M399.098702,0.272606055 L399.098702,1.90824238 C399.098702,1.98775248 399.073145,2.05306435 399.022032,2.10417798 C398.970918,2.15529162 398.905606,2.18084844 398.826096,2.18084844 L391.738339,2.18084844 C391.658828,2.18084844 391.593517,2.15529162 391.542403,2.10417798 C391.491289,2.05306435 391.465733,1.98775248 391.465733,1.90824238 L391.465733,0.272606055 C391.465733,0.193095955 391.491289,0.127784088 391.542403,0.0766704529 C391.593517,0.0255568176 391.658828,0 391.738339,0 L398.826096,0 C398.905606,0 398.970918,0.0255568176 399.022032,0.0766704529 C399.073145,0.127784088 399.098702,0.193095955 399.098702,0.272606055 Z" id="Shape-Copy-5"></path>
                </g>
            </g>
        </g>
    </g>
</svg>